<?xml version="1.0" encoding="UTF-8" standalone="no"?>
<!-- Created with Inkscape (http://www.inkscape.org/) -->

<svg
   width="210mm"
   height="297mm"
   viewBox="0 0 210 297"
   version="1.1"
   id="svg5"
   inkscape:version="1.1.2 (08b2f3d93c, 2022-04-05)"
   sodipodi:docname="logoc.svg"
   xmlns:inkscape="http://www.inkscape.org/namespaces/inkscape"
   xmlns:sodipodi="http://sodipodi.sourceforge.net/DTD/sodipodi-0.dtd"
   xmlns:xlink="http://www.w3.org/1999/xlink"
   xmlns="http://www.w3.org/2000/svg"
   xmlns:svg="http://www.w3.org/2000/svg">
  <sodipodi:namedview
     id="namedview7"
     pagecolor="#ffffff"
     bordercolor="#666666"
     borderopacity="1.0"
     inkscape:pageshadow="2"
     inkscape:pageopacity="0.0"
     inkscape:pagecheckerboard="0"
     inkscape:document-units="mm"
     showgrid="false"
     showguides="false"
     inkscape:guide-bbox="true"
     inkscape:zoom="0.5"
     inkscape:cx="396"
     inkscape:cy="432"
     inkscape:window-width="1368"
     inkscape:window-height="649"
     inkscape:window-x="0"
     inkscape:window-y="27"
     inkscape:window-maximized="1"
     inkscape:current-layer="layer1" />
  <defs
     id="defs2">
    <linearGradient
       inkscape:collect="always"
       id="linearGradient585">
      <stop
         style="stop-color:#000080;stop-opacity:1;"
         offset="0"
         id="stop581" />
      <stop
         style="stop-color:#00ffff;stop-opacity:1"
         offset="1"
         id="stop583" />
    </linearGradient>
    <clipPath
       clipPathUnits="userSpaceOnUse"
       id="clipPath106618">
      <g
         inkscape:label="Clip"
         id="use106620"
         transform="translate(-2.895278e-5)">
        <text
           xml:space="preserve"
           style="font-style:normal;font-variant:normal;font-weight:normal;font-stretch:normal;font-size:171.584px;line-height:1.25;font-family:'Nimbus Roman';-inkscape-font-specification:'Nimbus Roman, ';fill:#ffffff;fill-opacity:1;stroke:none;stroke-width:1.78733"
           x="137.19444"
           y="238.42128"
           id="text106996"
           transform="matrix(0.22313084,0,0,0.24657088,-299.31668,9.3837832)"><tspan
             sodipodi:role="line"
             id="tspan106994"
             style="font-style:normal;font-variant:normal;font-weight:normal;font-stretch:normal;font-size:171.584px;font-family:'Nimbus Roman';-inkscape-font-specification:'Nimbus Roman, ';fill:#ffffff;fill-opacity:1;stroke-width:1.78733"
             x="137.19444"
             y="238.42128">F</tspan></text>
        <text
           xml:space="preserve"
           style="font-style:normal;font-weight:normal;font-size:94.73px;line-height:1.25;font-family:sans-serif;fill:#000000;fill-opacity:1;stroke:none;stroke-width:0.986773"
           x="401.0184"
           y="158.8017"
           id="text107002"
           transform="matrix(0.18869157,0,0,0.29157407,-299.31668,9.3837832)"><tspan
             sodipodi:role="line"
             id="tspan106998"
             style="font-style:normal;font-variant:normal;font-weight:normal;font-stretch:normal;font-size:94.73px;font-family:'Nimbus Roman';-inkscape-font-specification:'Nimbus Roman, ';fill:#ffffff;fill-opacity:1;stroke-width:0.986773"
             x="401.0184"
             y="158.8017">ROBERT FERRER</tspan><tspan
             sodipodi:role="line"
             style="font-size:94.73px;stroke-width:0.986773"
             x="401.0184"
             y="284.48621"
             id="tspan107000" /></text>
        <text
           xml:space="preserve"
           style="font-style:normal;font-weight:normal;font-size:39.6478px;line-height:1.25;font-family:sans-serif;letter-spacing:13.5147px;fill:#000000;fill-opacity:1;stroke:none;stroke-width:0.412999"
           x="323.78537"
           y="243.54976"
           id="text107006"
           transform="matrix(0.22948391,0,0,0.23974477,-299.31668,9.3837832)"><tspan
             sodipodi:role="line"
             style="font-style:normal;font-variant:normal;font-weight:normal;font-stretch:normal;font-size:39.6478px;font-family:'Nimbus Roman';-inkscape-font-specification:'Nimbus Roman, ';fill:#ffffff;fill-opacity:1;stroke-width:0.412999"
             x="323.78537"
             y="243.54976"
             id="tspan107004">SYSTEMS DEVELOPER</tspan></text>
      </g>
    </clipPath>
    <linearGradient
       inkscape:collect="always"
       xlink:href="#linearGradient585"
       id="linearGradient809"
       gradientUnits="userSpaceOnUse"
       x1="230.28986"
       y1="14.049483"
       x2="158.83537"
       y2="50.624168" />
    <linearGradient
       inkscape:collect="always"
       xlink:href="#linearGradient585"
       id="linearGradient811"
       gradientUnits="userSpaceOnUse"
       x1="230.28986"
       y1="14.049483"
       x2="158.83537"
       y2="50.624168" />
  </defs>
  <g
     inkscape:label="Layer 1"
     inkscape:groupmode="layer"
     id="layer1">
    <rect
       style="fill:#000000;fill-opacity:1;stroke-width:0.164223"
       id="rect431"
       width="211.43349"
       height="297.98032"
       x="2.700021"
       y="-1.8701119" />
    <text
       xml:space="preserve"
       style="font-style:normal;font-weight:normal;font-size:26.6427px;line-height:1.25;font-family:sans-serif;fill:#ffffff;fill-opacity:1;stroke:none;stroke-width:0.27753"
       x="94.442863"
       y="40.306576"
       id="text41741"
       transform="scale(0.69411825,1.4406767)"
       inkscape:export-filename="/home/robert/Documents/logo.png"
       inkscape:export-xdpi="96"
       inkscape:export-ydpi="96"><tspan
         sodipodi:role="line"
         id="tspan41739"
         style="font-style:normal;font-variant:normal;font-weight:normal;font-stretch:normal;font-size:26.6427px;font-family:'Nimbus Roman';-inkscape-font-specification:'Nimbus Roman, ';fill:#ffffff;fill-opacity:1;stroke-width:0.27753"
         x="94.442863"
         y="40.306576">Landing page  One</tspan><tspan
         sodipodi:role="line"
         style="font-size:26.6427px;fill:#ffffff;fill-opacity:1;stroke-width:0.27753"
         x="94.442863"
         y="75.655197"
         id="tspan48255" /></text>
    <text
       xml:space="preserve"
       style="font-style:normal;font-weight:normal;font-size:10.8855px;line-height:1.25;font-family:sans-serif;letter-spacing:3.7105px;fill:#ffffff;fill-opacity:1;stroke:none;stroke-width:0.11339"
       x="86.601303"
       y="60.786743"
       id="text86627"
       transform="scale(0.772014,1.2953133)"
       inkscape:export-filename="/home/robert/Documents/logo.png"
       inkscape:export-xdpi="96"
       inkscape:export-ydpi="96"><tspan
         sodipodi:role="line"
         style="font-style:normal;font-variant:normal;font-weight:normal;font-stretch:normal;font-size:10.8855px;font-family:'Nimbus Roman';-inkscape-font-specification:'Nimbus Roman, ';fill:#ffffff;fill-opacity:1;stroke-width:0.11339"
         x="86.601303"
         y="60.786743"
         id="tspan86625">SYSTEMS DEVELOPER</tspan></text>
    <text
       xml:space="preserve"
       style="font-style:normal;font-variant:normal;font-weight:normal;font-stretch:normal;font-size:39.1896px;line-height:1.25;font-family:'Nimbus Roman';-inkscape-font-specification:'Nimbus Roman, ';fill:#ffffff;fill-opacity:1;stroke:none;stroke-width:0.408227"
       x="22.92239"
       y="71.188286"
       id="text1707-6"
       transform="scale(0.97530176,1.0253237)"
       inkscape:export-filename="/home/robert/Documents/logo.png"
       inkscape:export-xdpi="96"
       inkscape:export-ydpi="96"><tspan
         sodipodi:role="line"
         id="tspan1705-7"
         style="font-style:normal;font-variant:normal;font-weight:normal;font-stretch:normal;font-size:39.1896px;font-family:'Nimbus Roman';-inkscape-font-specification:'Nimbus Roman, ';fill:#ffffff;fill-opacity:1;stroke-width:0.408227"
         x="22.92239"
         y="71.188286">1</tspan></text>
    <g
       id="g1301"
       transform="translate(73.783949,121.70195)">
      <path
         d="m 58.369807,47.896917 c -4.04e-4,-0.976316 -0.20921,-1.839031 -0.631471,-2.579454 -0.414782,-0.728092 -1.035945,-1.33834 -1.869147,-1.820838 -6.877661,-3.9657 -13.761993,-7.919271 -20.63743,-11.889013 -1.853583,-1.070107 -3.65077,-1.031095 -5.490608,0.05437 -2.737521,1.614458 -16.44332,9.466822 -20.527468,11.832416 -1.68197,0.973687 -2.5004165,2.463831 -2.5008207,4.400695 -0.00263,7.975264 0,15.950325 -0.00263,23.92579 0,0.954889 0.2003163,1.800826 0.6039809,2.530132 0.4149848,0.750125 1.0448388,1.37715 1.8972438,1.870563 4.084351,2.365594 17.791969,10.217352 20.528884,11.832214 1.840646,1.086075 3.637833,1.124885 5.492022,0.05437 6.87564,-3.969945 13.760375,-7.923314 20.639047,-11.889014 0.852406,-0.493211 1.48226,-1.12064 1.897244,-1.870159 0.403058,-0.729306 0.603779,-1.575244 0.603779,-2.530335 0,0 0,-15.946281 -0.0026,-23.921746"
         fill="#a179dc"
         fill-rule="nonzero"
         id="path2-3"
         style="fill:#02a9f7;fill-opacity:1;stroke-width:0.202136" />
      <path
         d="M 32.62037,59.780271 7.3142154,74.351019 c 0.4149846,0.750125 1.0448386,1.37715 1.8972436,1.870563 4.084351,2.365594 17.791969,10.217352 20.528884,11.832214 1.840646,1.086075 3.637833,1.124885 5.492022,0.05437 6.87564,-3.969945 13.760375,-7.923314 20.639047,-11.889014 0.852406,-0.493211 1.48226,-1.12064 1.897244,-1.870159 L 32.62037,59.780271"
         fill="#280068"
         fill-rule="nonzero"
         id="path4"
         style="fill:#01303f;fill-opacity:1;stroke-width:0.202136" />
      <path
         d="M 57.73908,45.317472 C 57.73867,44.341156 57.52987,43.478441 57.1076,42.738018 56.69282,42.009926 56.07166,41.399678 55.23846,40.91718 48.3608,36.95148 41.47646,32.997909 34.60103,29.028167 32.74744,27.95806 30.95026,27.997072 29.11042,29.082537 26.3729,30.696995 12.6671,38.549359 8.58295,40.914953 6.90098,41.88864 6.08254,43.378784 6.08213,45.315648 c -0.003,7.975264 0,15.950325 -0.003,23.92579 0,0.954889 0.20032,1.800826 0.60398,2.530132 0.41499,0.750125 1.04484,1.37715 1.89725,1.870563 4.08435,2.365594 17.79196,10.217352 20.52888,11.832214 1.84065,1.086075 3.63783,1.124885 5.49202,0.05437 6.87564,-3.969945 13.76038,-7.923314 20.63905,-11.889014 0.8524,-0.493211 1.48226,-1.12064 1.89724,-1.870159 0.40306,-0.729306 0.60378,-1.575244 0.60378,-2.530335 0,0 0,-15.946281 -0.003,-23.921746"
         fill="#a179dc"
         fill-rule="nonzero"
         id="path13964"
         style="fill:#02a9f7;fill-opacity:1;stroke-width:0.202136" />
      <path
         d="M 32.62037,59.780271 7.31421,74.351019 c 0.41499,0.750125 1.04484,1.37715 1.89725,1.870563 4.08435,2.365594 17.79197,10.217352 20.52888,11.832214 1.84065,1.086075 3.63783,1.124885 5.49202,0.05437 6.87564,-3.969945 13.76038,-7.923314 20.63905,-11.889014 0.85241,-0.493211 1.48226,-1.12064 1.89724,-1.870159 L 32.62037,59.780271"
         fill="#280068"
         fill-rule="nonzero"
         id="path13966"
         style="fill:#01303f;fill-opacity:1;stroke-width:0.202136" />
      <path
         d="M 58.36981,47.896916 C 58.3694,46.920601 58.1606,46.057886 57.73833,45.317463 L 32.62037,59.780271 57.76865,74.348998 c 0.40306,-0.729308 0.60338,-1.575246 0.60378,-2.530335 0,0 0,-15.946281 -0.003,-23.921747"
         fill="#390091"
         fill-rule="nonzero"
         id="path13968"
         style="fill:#02577a;fill-opacity:1;stroke-width:0.202136" />
      <text
         xml:space="preserve"
         style="font-style:normal;font-variant:normal;font-weight:normal;font-stretch:normal;font-size:39.1896px;line-height:1.25;font-family:'Nimbus Roman';-inkscape-font-specification:'Nimbus Roman, ';fill:#ffffff;fill-opacity:1;stroke:none;stroke-width:0.408227"
         x="23.464958"
         y="70.156097"
         id="text13972"
         transform="scale(0.97530176,1.0253237)"
         inkscape:export-filename="/home/robert/Documents/logo.png"
         inkscape:export-xdpi="96"
         inkscape:export-ydpi="96"><tspan
           sodipodi:role="line"
           id="tspan13970"
           style="font-style:normal;font-variant:normal;font-weight:normal;font-stretch:normal;font-size:39.1896px;font-family:'Nimbus Roman';-inkscape-font-specification:'Nimbus Roman, ';fill:#ffffff;fill-opacity:1;stroke-width:0.408227"
           x="23.464958"
           y="70.156097">1</tspan></text>
      <path
         id="path13974"
         style="fill:#ffffff;fill-opacity:1;stroke-width:0.165285"
         d="m 31.678713,34.887002 c -0.7406,0.0096 -1.47991,0.241012 -2.2278,0.687376 -2.22556,1.327785 -13.3681,7.785857 -16.68845,9.731404 -1.3674,0.800799 -2.03296,2.026101 -2.03329,3.61904 -0.002,6.559136 1.6e-4,13.118144 -0.002,19.677434 3.2e-4,0.785336 0.16289,1.481167 0.49106,2.080973 0.33738,0.61693 0.84924,1.132598 1.54223,1.5384 3.32051,1.945545 14.46467,8.402961 16.68974,9.731076 1.49641,0.893227 2.95748,0.925227 4.4649,0.04484 5.58978,-3.265026 11.18704,-6.51631 16.77929,-9.77784 0.69299,-0.405629 1.20485,-0.921641 1.54222,-1.538068 0.32768,-0.599814 0.49075,-1.295465 0.49108,-2.080965 0,0 -1.1e-4,-13.114895 -0.002,-19.674193 -2.1e-4,-0.802957 -0.16989,-1.512606 -0.51318,-2.121549 -0.33723,-0.598807 -0.8424,-1.100668 -1.51978,-1.497491 -5.59141,-3.261548 -11.18837,-6.513006 -16.77799,-9.77786 -0.75346,-0.440047 -1.49522,-0.652169 -2.23582,-0.64257 z m -0.002,1.923163 c 0.67721,-0.0088 1.35589,0.184995 2.04486,0.58737 5.11112,2.98537 10.22892,5.958779 15.34169,8.941104 0.61939,0.362854 1.0811,0.821684 1.38944,1.369235 0.31391,0.556817 0.46892,1.2055 0.46925,1.939725 0.002,5.997785 0.002,17.989993 0.002,17.989993 -4e-4,0.718259 -0.14907,1.35425 -0.4487,1.902713 -0.3085,0.563661 -0.77664,1.035662 -1.41031,1.406571 -5.11353,2.982326 -10.23171,5.955265 -15.34298,8.940778 -1.37838,0.805054 -2.71433,0.775841 -4.08264,-0.04092 -2.03464,-1.214413 -12.2246,-7.118889 -15.26086,-8.897897 -0.63366,-0.371054 -1.10213,-0.842782 -1.41063,-1.406895 -0.30008,-0.548462 -0.44837,-1.184608 -0.4487,-1.902705 0.002,-5.997792 -3e-5,-11.995286 0.002,-17.992925 3.2e-4,-1.456584 0.60866,-2.577037 1.85902,-3.309284 3.0361,-1.778999 13.2248,-7.684447 15.25984,-8.898567 0.68386,-0.408152 1.35962,-0.619503 2.03683,-0.628282 z" />
    </g>
    <g
       id="g1528"
       transform="translate(2.0370931,-2.5219068)">
      <path
         d="m 58.369807,47.896917 c -4.04e-4,-0.976316 -0.20921,-1.839031 -0.631471,-2.579454 -0.414782,-0.728092 -1.035945,-1.33834 -1.869147,-1.820838 -6.877661,-3.9657 -13.761993,-7.919271 -20.63743,-11.889013 -1.853583,-1.070107 -3.65077,-1.031095 -5.490608,0.05437 -2.737521,1.614458 -16.44332,9.466822 -20.527468,11.832416 -1.68197,0.973687 -2.5004165,2.463831 -2.5008207,4.400695 -0.00263,7.975264 0,15.950325 -0.00263,23.92579 0,0.954889 0.2003163,1.800826 0.6039809,2.530132 0.4149848,0.750125 1.0448388,1.37715 1.8972438,1.870563 4.084351,2.365594 17.791969,10.217352 20.528884,11.832214 1.840646,1.086075 3.637833,1.124885 5.492022,0.05437 6.87564,-3.969945 13.760375,-7.923314 20.639047,-11.889014 0.852406,-0.493211 1.48226,-1.12064 1.897244,-1.870159 0.403058,-0.729306 0.603779,-1.575244 0.603779,-2.530335 0,0 0,-15.946281 -0.0026,-23.921746"
         fill="#a179dc"
         fill-rule="nonzero"
         id="path1512"
         style="fill:#02a9f7;fill-opacity:1;stroke-width:0.202136" />
      <path
         d="M 32.62037,59.780271 7.3142154,74.351019 c 0.4149846,0.750125 1.0448386,1.37715 1.8972436,1.870563 4.084351,2.365594 17.791969,10.217352 20.528884,11.832214 1.840646,1.086075 3.637833,1.124885 5.492022,0.05437 6.87564,-3.969945 13.760375,-7.923314 20.639047,-11.889014 0.852406,-0.493211 1.48226,-1.12064 1.897244,-1.870159 L 32.62037,59.780271"
         fill="#280068"
         fill-rule="nonzero"
         id="path1514"
         style="fill:#01303f;fill-opacity:1;stroke-width:0.202136" />
      <path
         d="M 57.73908,45.317472 C 57.73867,44.341156 57.52987,43.478441 57.1076,42.738018 56.69282,42.009926 56.07166,41.399678 55.23846,40.91718 48.3608,36.95148 41.47646,32.997909 34.60103,29.028167 32.74744,27.95806 30.95026,27.997072 29.11042,29.082537 26.3729,30.696995 12.6671,38.549359 8.58295,40.914953 6.90098,41.88864 6.08254,43.378784 6.08213,45.315648 c -0.003,7.975264 0,15.950325 -0.003,23.92579 0,0.954889 0.20032,1.800826 0.60398,2.530132 0.41499,0.750125 1.04484,1.37715 1.89725,1.870563 4.08435,2.365594 17.79196,10.217352 20.52888,11.832214 1.84065,1.086075 3.63783,1.124885 5.49202,0.05437 6.87564,-3.969945 13.76038,-7.923314 20.63905,-11.889014 0.8524,-0.493211 1.48226,-1.12064 1.89724,-1.870159 0.40306,-0.729306 0.60378,-1.575244 0.60378,-2.530335 0,0 0,-15.946281 -0.003,-23.921746"
         fill="#a179dc"
         fill-rule="nonzero"
         id="path1516"
         style="fill:#02a9f7;fill-opacity:1;stroke-width:0.202136" />
      <path
         d="M 32.62037,59.780271 7.31421,74.351019 c 0.41499,0.750125 1.04484,1.37715 1.89725,1.870563 4.08435,2.365594 17.79197,10.217352 20.52888,11.832214 1.84065,1.086075 3.63783,1.124885 5.49202,0.05437 6.87564,-3.969945 13.76038,-7.923314 20.63905,-11.889014 0.85241,-0.493211 1.48226,-1.12064 1.89724,-1.870159 L 32.62037,59.780271"
         fill="#280068"
         fill-rule="nonzero"
         id="path1518"
         style="fill:#01303f;fill-opacity:1;stroke-width:0.202136" />
      <path
         d="M 58.36981,47.896916 C 58.3694,46.920601 58.1606,46.057886 57.73833,45.317463 L 32.62037,59.780271 57.76865,74.348998 c 0.40306,-0.729308 0.60338,-1.575246 0.60378,-2.530335 0,0 0,-15.946281 -0.003,-23.921747"
         fill="#390091"
         fill-rule="nonzero"
         id="path1520"
         style="fill:#02577a;fill-opacity:1;stroke-width:0.202136" />
      <text
         xml:space="preserve"
         style="font-style:normal;font-variant:normal;font-weight:normal;font-stretch:normal;font-size:39.1896px;line-height:1.25;font-family:'Nimbus Roman';-inkscape-font-specification:'Nimbus Roman, ';fill:#ffffff;fill-opacity:1;stroke:none;stroke-width:0.408227"
         x="23.464958"
         y="70.156097"
         id="text1524"
         transform="scale(0.97530176,1.0253237)"
         inkscape:export-filename="/home/robert/Documents/logo.png"
         inkscape:export-xdpi="96"
         inkscape:export-ydpi="96"><tspan
           sodipodi:role="line"
           id="tspan1522"
           style="font-style:normal;font-variant:normal;font-weight:normal;font-stretch:normal;font-size:39.1896px;font-family:'Nimbus Roman';-inkscape-font-specification:'Nimbus Roman, ';fill:#ffffff;fill-opacity:1;stroke-width:0.408227"
           x="23.464958"
           y="70.156097">1</tspan></text>
      <path
         id="path1526"
         style="fill:#ffffff;fill-opacity:1;stroke-width:0.165285"
         d="m 31.678713,34.887002 c -0.7406,0.0096 -1.47991,0.241012 -2.2278,0.687376 -2.22556,1.327785 -13.3681,7.785857 -16.68845,9.731404 -1.3674,0.800799 -2.03296,2.026101 -2.03329,3.61904 -0.002,6.559136 1.6e-4,13.118144 -0.002,19.677434 3.2e-4,0.785336 0.16289,1.481167 0.49106,2.080973 0.33738,0.61693 0.84924,1.132598 1.54223,1.5384 3.32051,1.945545 14.46467,8.402961 16.68974,9.731076 1.49641,0.893227 2.95748,0.925227 4.4649,0.04484 5.58978,-3.265026 11.18704,-6.51631 16.77929,-9.77784 0.69299,-0.405629 1.20485,-0.921641 1.54222,-1.538068 0.32768,-0.599814 0.49075,-1.295465 0.49108,-2.080965 0,0 -1.1e-4,-13.114895 -0.002,-19.674193 -2.1e-4,-0.802957 -0.16989,-1.512606 -0.51318,-2.121549 -0.33723,-0.598807 -0.8424,-1.100668 -1.51978,-1.497491 -5.59141,-3.261548 -11.18837,-6.513006 -16.77799,-9.77786 -0.75346,-0.440047 -1.49522,-0.652169 -2.23582,-0.64257 z m -0.002,1.923163 c 0.67721,-0.0088 1.35589,0.184995 2.04486,0.58737 5.11112,2.98537 10.22892,5.958779 15.34169,8.941104 0.61939,0.362854 1.0811,0.821684 1.38944,1.369235 0.31391,0.556817 0.46892,1.2055 0.46925,1.939725 0.002,5.997785 0.002,17.989993 0.002,17.989993 -4e-4,0.718259 -0.14907,1.35425 -0.4487,1.902713 -0.3085,0.563661 -0.77664,1.035662 -1.41031,1.406571 -5.11353,2.982326 -10.23171,5.955265 -15.34298,8.940778 -1.37838,0.805054 -2.71433,0.775841 -4.08264,-0.04092 -2.03464,-1.214413 -12.2246,-7.118889 -15.26086,-8.897897 -0.63366,-0.371054 -1.10213,-0.842782 -1.41063,-1.406895 -0.30008,-0.548462 -0.44837,-1.184608 -0.4487,-1.902705 0.002,-5.997792 -3e-5,-11.995286 0.002,-17.992925 3.2e-4,-1.456584 0.60866,-2.577037 1.85902,-3.309284 3.0361,-1.778999 13.2248,-7.684447 15.25984,-8.898567 0.68386,-0.408152 1.35962,-0.619503 2.03683,-0.628282 z" />
    </g>
  </g>
</svg>
